<?xml version="1.0" encoding="UTF-8"?><svg id="Layer_2" xmlns="http://www.w3.org/2000/svg" viewBox="0 0 264.71 675.66"><defs><style>.cls-1{fill:#fff;stroke-width:0px;}</style></defs><g id="Layer_1-2"><path class="cls-1" d="M219.05,50.13c7.9-11.36,8.03-23.12,2.8-34.59-5.16-11.31-16.05-13.72-27.25-14.17-10.64-.42-21.29-.25-31.94-.36-3.51-.04-5.68,1.09-5.66,5.14.12,26.29.15,52.58.18,78.87,0,3.15,1.16,5.19,4.6,5.15,15.62-.16,31.3.49,46.83-.75,14.58-1.17,20.85-10.21,19.51-24.74-.58-6.25-3.84-10.83-9.06-14.55ZM190.47,23.15c.62.03,2.11.06,3.6.18,5.33.42,7.37,2.8,7.36,8.51,0,5.79-1.9,7.86-7.55,8.19-1.65.1-3.31.13-4.97.12-8.05-.05-8.28-.3-8.29-8.42-.01-8.61.18-8.8,9.84-8.58ZM196.42,71.84c-1.99.07-3.98.01-5.97.01,0,.01,0,.02,0,.03-.83,0-1.66.01-2.49,0-6.8-.12-9.32-3.56-7.04-10.11.41-1.19,2.23-2.57,3.49-2.67,4.12-.31,8.3-.24,12.43.01,3.94.24,5.86,2.48,5.77,6.58-.08,4.2-2.26,6.01-6.19,6.14Z"/><path class="cls-1" d="M149.93,36.05c0-6.17,0-12.33,0-18.5,0-1.33-.04-2.67-.03-4,.03-14.16.28-12.51-12.86-12.74-10.7-.19-10.7-.11-10.71,10.6-.02,15.66.06,31.33-.11,46.99-.09,8.5-3.22,11.54-10.95,11.41-6.34-.11-9.19-2.55-9.91-8.83-.34-2.97-.33-5.99-.34-8.98-.06-15.16-.15-30.33-.04-45.49.03-4.27-1.66-6.12-5.89-6.01-4.16.11-8.34.12-12.49-.08-3.73-.18-5.11,1.63-5.12,5.07,0,3.33-.1,6.66-.11,10-.03,15.49-.3,30.99.01,46.48.36,17.63,9.86,27.83,27.4,29.71,4.92.53,10,.47,14.93-.06,16.42-1.75,26.11-12.58,26.29-29.08.1-8.83.02-17.66.02-26.49h-.08Z"/><path class="cls-1" d="M54.44.72C41.85-.22,29.16.17,16.52,0c-3.82-.05-5.17,2.03-5.15,5.71.1,12.82.04,25.64.04,38.46-.17,0-.34,0-.51,0,0,12.32,0,24.64,0,36.97,0,7.4.51,8,7.9,7.99,17.15,0,15.63,3.05,15.68-15.53.04-14.4-.1-12.32,12.41-12.47,24.02-.29,33.11-9.91,32.29-33.94-.55-15.92-8.78-25.29-24.73-26.48ZM55.34,33.11c-.17,3.23-1.86,5.26-5.26,5.49-1.99.14-3.98.21-5.96.31,0-.03,0-.07,0-.1-1.66,0-3.32-.02-4.98,0-2.88.05-4.28-1.39-4.32-4.22,0-.17-.05-.34-.03-.5.56-3.78.32-10.39,1.83-10.81,4.85-1.36,10.58-1.39,15.51-.13,4.46,1.14,3.42,6.2,3.22,9.95Z"/><path class="cls-1" d="M254.92,46.92c-.29,0-.58,0-.86,0,0-13.14-.06-26.27.04-39.41.03-4.23-1.7-6.07-5.97-5.89-3.98.17-7.98,0-11.97-.05-3.74-.05-5.43,1.69-5.33,5.5.16,6.15.09,12.31.15,18.46.2,19.79.46,39.57.58,59.36.02,4.24,1.71,6.11,6,5.9,3.65-.18,7.32-.18,10.97,0,4.67.23,6.55-1.69,6.47-6.46-.2-12.47-.07-24.94-.07-37.41Z"/><path class="cls-1" d="M263.28,624.01c-3.79-14.64-13.04-25.25-26.29-32.42-1.47-.8-2.94-1.6-5.29-2.89,2.76-1.01,4.3-1.53,5.82-2.13,9.35-3.74,17.68-8.86,22.12-18.36,6.2-13.26.71-28.45-13.51-37.83-4.63-3.05-9.46-5.79-14.67-8.96,1.84-.68,3.2-1.17,4.55-1.67,21.75-8.06,31.83-25.96,26.14-47.23-3.31-12.37-11.42-21.24-22.32-27.65-2.46-1.44-5.01-2.72-8.4-4.55,17.88-5.68,28.6-16.72,30.73-34.39,2.79-23.14-9.37-37.61-30.18-47.1,19.65-7.63,32.1-20.31,30.44-41.53-1.74-22.15-19.63-28.45-37.35-33.88,7.48-4.89,15.23-9.14,22.06-14.55,20.59-16.31,20.42-44.99-.31-61.06-5.57-4.31-12.07-7.42-18.16-11.09.9-.32,2.11-.8,3.34-1.19,28.84-9.2,38.17-43.27,17.84-65.61-7.66-8.42-17.72-12.85-28.56-15.56-18.73-4.68-37.85-5.34-57.05-5.4-19.65-.06-39.31-.32-58.95-.92-21.26-.65-42.33,0-62.82,6.43-12.92,4.05-24.17,10.52-30.96,22.84-9.59,17.38-2.29,42.81,15.24,53.59,1.06.65,2.08,1.36,3.29,2.15-.7.62-1.03.99-1.44,1.25-12.51,7.81-19.78,18.82-19.37,33.81.4,14.66,8.11,25.03,20.83,31.78,4.33,2.3,8.87,4.18,13.88,6.51-10.38,5.15-19.35,11.3-26.47,19.94-12.6,15.3-14.11,34.87-3.39,49.37,6.55,8.86,15.81,14.11,25.8,18.21,1.08.45,2.1,1.06,3.79,1.92-18.66,6.35-34.41,15.25-37.67,35.62-3.14,19.63,4.09,35.54,21.38,45.44-4.57,4.18-9.66,7.63-13.16,12.27-13.53,17.98-13.86,42.33-1.33,61.39,11.17,16.99,27.26,27.99,45.18,36.71,1.71.83,3.42,1.63,5.47,2.61-.82.72-1.03,1.04-1.32,1.13-1.11.35-2.24.61-3.35.95-14.76,4.47-28.99,10.01-40.72,20.48-16.39,14.63-21.1,32.8-16.44,53.9,4.49,20.3,17.15,33.11,36.96,37.68,13.21,3.05,26.98,4.98,40.51,5.06,38.53.23,76.91,2.1,115.24,5.93,13.64,1.36,27.29.56,40.62-3.3,22.21-6.44,33.93-25.75,28.24-47.72ZM32.62,135.81c6.12-4.41,13.88-7.16,21.3-9.05,16.46-4.18,33.38-3.29,50.21-2.88,8.98.22,17.98.04,26.97.04.02-.13.03-.26.05-.39,25.59,1.34,51.23,2.2,76.76,4.32,8.01.67,16.16,3.89,23.48,7.5,10.46,5.15,13.7,14.95,12.55,26.09-1.15,11.04-8.85,16.11-18.51,19.17-11.81,3.74-24,3.62-36.14,3.24-23.63-.74-47.23-2.38-70.86-2.69-18.63-.24-37.27,1.09-55.91,1.46-9.78.19-19.26-1.45-27.74-6.8-13.99-8.83-15.57-30.33-2.14-40.01ZM34.08,332.47c-10.42-7.22-13.49-20.94-6.89-31.81,6.08-10.01,15.14-16.6,25.87-20.2,20.03-6.73,40.33-12.62,60.55-18.77,7.45-2.27,14.97-4.27,22.47-6.4-.07-.49-.15-.98-.22-1.48-10.27,0-20.55.25-30.81-.06-16.47-.49-32.96-1.01-49.39-2.24-5.66-.42-11.39-2.47-16.69-4.72-7.96-3.37-12.6-9.72-12.99-18.58-.41-9.22,3.42-16.71,11.83-20.23,7.55-3.17,15.82-6.19,23.84-6.4,27.28-.69,54.63-.86,81.89.22,20.75.83,41.54,3.07,62.06,6.28,9.6,1.5,19.11,5.86,27.8,10.52,17.83,9.55,14.45,30.18,1.66,39.12-12.29,8.59-25.65,15.03-39.7,19.7-21.79,7.25-43.92,13.48-65.9,20.16-1.04.32-2.06.7-2.98,1.62,8.49,0,17.03.57,25.47-.11,19.77-1.59,39.51-4.03,59.33-1.21,9.04,1.29,18.29,2.21,26.08,7.75,10.9,7.76,11.31,22.14.92,30.68-7.29,5.99-15.77,9.06-25.02,10.45-31.03,4.65-62.16,3.43-93.28,1.58-16.95-1.01-33.94-1.88-50.81-3.74-12.44-1.37-24.48-4.79-35.07-12.14ZM21.83,399.97c-.4-12.53,5.12-21.27,16.8-26.28,14.22-6.1,29.37-7.69,44.53-7.48,39.13.54,78.25,1.64,117.36,2.75,11.56.33,22.85,2.29,32.87,8.8,9.29,6.04,13.22,14.81,12.47,25.55-.75,10.76-7.4,17.03-17.22,20.38-12.87,4.4-26.21,4.56-39.54,4.08-19.14-.68-38.25-1.84-61.6-3-19.09.53-42.39,1.48-65.7,1.67-7.2.06-14.67-1.12-21.58-3.18-12.04-3.59-18.03-11.91-18.39-23.31ZM245.42,643.99c-2.46,5.32-6.89,8.4-12.28,10.29-14.04,4.91-28.6,4.84-43.02,3.43-42.49-4.15-85.08-5.47-127.74-5.79-9.95-.07-19.62-2.2-28.3-7.18-21.55-12.36-22.91-46.52-2.77-61.87,9.19-7,19.69-11.05,30.48-14.56,20.91-6.79,42.73-8.52,64.32-11.54,4.34-.61,8.69-1.22,13.03-1.84,0-.39-.02-.77-.03-1.16-11.91-2.96-23.78-6.07-35.74-8.84-20.77-4.81-40.9-11.41-58.23-24.11-6.98-5.11-13.8-11.47-18.29-18.75-15.39-24.95-2.92-51.3,26.17-55.92,10.14-1.61,20.59-2.17,30.85-1.86,27.3.82,54.58,2.21,81.85,3.71,14.94.82,29.9,1.87,44.74,3.7,9.61,1.19,18.42,5.18,26.63,10.71,12.01,8.1,14.98,33.63-4.82,40.67-7.54,2.68-15.87,4.55-23.81,4.42-19.28-.31-38.55-1.93-57.81-3.17-12.46-.81-24.91-1.89-37.36-2.83-1.26-.09-2.53-.01-4.07,1.02,1.75.71,3.45,1.58,5.25,2.11,25.07,7.36,50.18,14.57,75.23,22.03,14,4.17,28.09,8.21,41.74,13.36,4.57,1.73,8.77,6.14,11.6,10.35,4.18,6.23,2.8,11.86-3.39,16.02-4.48,3.02-9.52,5.85-14.71,7.08-26.88,6.37-53.88,12.2-80.84,18.21-3.96.88-7.94,1.73-11.91,2.59l.09,1.37c7.51.51,15.02.99,22.53,1.53,19.93,1.44,39.91,2.41,59.75,4.65,7.03.79,14.16,3.88,20.43,7.38,11.27,6.29,15.85,23.03,10.42,34.77Z"/></g></svg>